<svg width="17" height="15" viewBox="0 0 17 15" fill="none" xmlns="http://www.w3.org/2000/svg">
<path d="M6.07386 2.49792C6.07386 1.83543 6.32947 1.20007 6.78446 0.731623C7.23945 0.263172 7.85655 0 8.5 0C9.14345 0 9.76055 0.263172 10.2155 0.731623C10.6705 1.20007 10.9261 1.83543 10.9261 2.49792C10.9261 3.1604 10.6705 3.79576 10.2155 4.26421C9.76055 4.73266 9.14345 4.99583 8.5 4.99583C7.85655 4.99583 7.23945 4.73266 6.78446 4.26421C6.32947 3.79576 6.07386 3.1604 6.07386 2.49792ZM8.5 1.25021C8.34086 1.25021 8.18327 1.28248 8.03624 1.34518C7.88921 1.40789 7.75562 1.49979 7.64309 1.61565C7.53056 1.73151 7.44129 1.86906 7.38039 2.02044C7.31949 2.17182 7.28814 2.33406 7.28814 2.49792C7.28814 2.66177 7.31949 2.82401 7.38039 2.97539C7.44129 3.12677 7.53056 3.26432 7.64309 3.38018C7.75562 3.49604 7.88921 3.58794 8.03624 3.65065C8.18327 3.71335 8.34086 3.74562 8.5 3.74562C8.8214 3.74562 9.12965 3.61417 9.35691 3.38018C9.58418 3.14619 9.71186 2.82883 9.71186 2.49792C9.71186 2.167 9.58418 1.84964 9.35691 1.61565C9.12965 1.38166 8.8214 1.25021 8.5 1.25021ZM12.1429 3.12302C12.1429 2.87675 12.19 2.63289 12.2815 2.40537C12.373 2.17785 12.5072 1.97111 12.6763 1.79697C12.8455 1.62284 13.0463 1.4847 13.2673 1.39046C13.4882 1.29621 13.7251 1.24771 13.9643 1.24771C14.2035 1.24771 14.4403 1.29621 14.6613 1.39046C14.8823 1.4847 15.0831 1.62284 15.2522 1.79697C15.4214 1.97111 15.5555 2.17785 15.6471 2.40537C15.7386 2.63289 15.7857 2.87675 15.7857 3.12302C15.7857 3.62038 15.5938 4.09738 15.2522 4.44907C14.9106 4.80076 14.4474 4.99833 13.9643 4.99833C13.4812 4.99833 13.0179 4.80076 12.6763 4.44907C12.3348 4.09738 12.1429 3.62038 12.1429 3.12302ZM13.9643 2.49792C13.8033 2.49792 13.6488 2.56378 13.535 2.68101C13.4211 2.79823 13.3571 2.95723 13.3571 3.12302C13.3571 3.28881 13.4211 3.44781 13.535 3.56504C13.6488 3.68227 13.8033 3.74812 13.9643 3.74812C14.1253 3.74812 14.2797 3.68227 14.3936 3.56504C14.5075 3.44781 14.5714 3.28881 14.5714 3.12302C14.5714 2.95723 14.5075 2.79823 14.3936 2.68101C14.2797 2.56378 14.1253 2.49792 13.9643 2.49792ZM3.03571 1.24771C2.55264 1.24771 2.08935 1.44528 1.74777 1.79697C1.40619 2.14866 1.21429 2.62566 1.21429 3.12302C1.21429 3.62038 1.40619 4.09738 1.74777 4.44907C2.08935 4.80076 2.55264 4.99833 3.03571 4.99833C3.51879 4.99833 3.98208 4.80076 4.32366 4.44907C4.66524 4.09738 4.85714 3.62038 4.85714 3.12302C4.85714 2.62566 4.66524 2.14866 4.32366 1.79697C3.98208 1.44528 3.51879 1.24771 3.03571 1.24771ZM2.42857 3.12302C2.42857 2.95723 2.49254 2.79823 2.6064 2.68101C2.72026 2.56378 2.87469 2.49792 3.03571 2.49792C3.19674 2.49792 3.35117 2.56378 3.46503 2.68101C3.57889 2.79823 3.64286 2.95723 3.64286 3.12302C3.64286 3.28881 3.57889 3.44781 3.46503 3.56504C3.35117 3.68227 3.19674 3.74812 3.03571 3.74812C2.87469 3.74812 2.72026 3.68227 2.6064 3.56504C2.49254 3.44781 2.42857 3.28881 2.42857 3.12302ZM3.96829 6.24854C3.75511 6.62865 3.64288 7.05983 3.64286 7.49875H1.21429V10.6243C1.21419 10.9352 1.2892 11.2414 1.43257 11.5151C1.57595 11.7888 1.78318 12.0215 2.03561 12.1922C2.28805 12.363 2.57776 12.4664 2.87868 12.4932C3.17959 12.52 3.48226 12.4694 3.75943 12.3458C3.84929 12.7596 3.99014 13.1547 4.17229 13.5235C3.71142 13.7151 3.21192 13.7872 2.71764 13.7336C2.22336 13.68 1.74943 13.5023 1.33747 13.216C0.9255 12.9297 0.588102 12.5437 0.354903 12.0918C0.121703 11.6399 -0.000165201 11.136 1.68073e-07 10.6243V7.49875C1.68073e-07 7.16717 0.127933 6.84918 0.355656 6.61472C0.583379 6.38026 0.892237 6.24854 1.21429 6.24854H3.96829ZM12.8277 13.5235C13.2886 13.7151 13.7881 13.7872 14.2824 13.7336C14.7766 13.68 15.2506 13.5023 15.6625 13.216C16.0745 12.9297 16.4119 12.5437 16.6451 12.0918C16.8783 11.6399 17.0002 11.136 17 10.6243V7.49875C17 7.16717 16.8721 6.84918 16.6443 6.61472C16.4166 6.38026 16.1078 6.24854 15.7857 6.24854H13.0317C13.2381 6.6161 13.3571 7.04242 13.3571 7.49875H15.7857V10.6243C15.7858 10.9352 15.7108 11.2414 15.5674 11.5151C15.4241 11.7888 15.2168 12.0215 14.9644 12.1922C14.712 12.363 14.4222 12.4664 14.1213 12.4932C13.8204 12.52 13.5177 12.4694 13.2406 12.3458C13.1483 12.7609 13.0107 13.1534 12.8277 13.5235ZM6.07143 6.24729C5.74938 6.24729 5.44052 6.37901 5.2128 6.61347C4.98508 6.84793 4.85714 7.16592 4.85714 7.4975V11.2494C4.85714 12.2441 5.24094 13.1981 5.92411 13.9015C6.60728 14.6048 7.53385 15 8.5 15C9.46615 15 10.3927 14.6048 11.0759 13.9015C11.7591 13.1981 12.1429 12.2441 12.1429 11.2494V7.49875C12.1429 7.16717 12.0149 6.84918 11.7872 6.61472C11.5595 6.38026 11.2506 6.24854 10.9286 6.24854L6.07143 6.24729ZM6.07143 7.4975H10.9286V11.2494C10.9286 11.9125 10.6727 12.5485 10.2173 13.0174C9.76181 13.4864 9.1441 13.7498 8.5 13.7498C7.8559 13.7498 7.23819 13.4864 6.78274 13.0174C6.3273 12.5485 6.07143 11.9125 6.07143 11.2494V7.4975Z" fill="white"/>
</svg>
